<svg width="119" height="42" viewBox="0 0 119 42" fill="none" xmlns="http://www.w3.org/2000/svg">
<path d="M36.1211 22C36.0664 21.7734 36.0391 21.5508 36.0391 21.332L36.0742 20.6641C34.9102 21.7422 33.6758 22.2656 32.3711 22.2344C31.2539 22.2188 30.3438 21.8672 29.6406 21.1797C28.9453 20.4844 28.6289 19.6172 28.6914 18.5781C28.7695 17.2344 29.3555 16.1875 30.4492 15.4375C31.5508 14.6797 32.9961 14.3008 34.7852 14.3008L37 14.3125L37.1406 13.3047C37.2188 12.5469 37.0703 11.9492 36.6953 11.5117C36.3281 11.0664 35.7734 10.8359 35.0312 10.8203C34.3047 10.8047 33.6602 10.9844 33.0977 11.3594C32.543 11.7266 32.2031 12.2148 32.0781 12.8242L29.9453 12.8359C30.0156 12.0938 30.3047 11.4375 30.8125 10.8672C31.3203 10.2891 31.9727 9.84375 32.7695 9.53125C33.5664 9.21094 34.3906 9.05859 35.2422 9.07422C36.5625 9.10547 37.5898 9.50781 38.3242 10.2812C39.0586 11.0469 39.3672 12.0664 39.25 13.3398L38.2188 19.6211L38.1602 20.5234C38.1445 20.9531 38.1914 21.3789 38.3008 21.8008L38.2773 22H36.1211ZM32.793 20.3594C33.4727 20.375 34.1133 20.2148 34.7148 19.8789C35.3242 19.5352 35.8477 19.0625 36.2852 18.4609L36.7422 15.8477L35.1367 15.8359C33.8008 15.8359 32.7773 16.0469 32.0664 16.4688C31.3555 16.8906 30.9531 17.4883 30.8594 18.2617C30.7891 18.8555 30.9258 19.3516 31.2695 19.75C31.6211 20.1406 32.1289 20.3438 32.793 20.3594ZM55.0445 6.25L54.5055 9.32031H56.8141L56.5211 10.9961H54.2242L52.9 18.8828C52.8766 19.0859 52.8727 19.2734 52.8883 19.4453C52.943 20.0547 53.275 20.3594 53.8844 20.3594C54.1422 20.3594 54.4859 20.3203 54.9156 20.2422L54.7516 22.0117C54.2437 22.1523 53.7281 22.2227 53.2047 22.2227C52.3609 22.207 51.7281 21.8984 51.3062 21.2969C50.8844 20.6875 50.7203 19.8711 50.8141 18.8477L52.1031 10.9961H49.8648L50.1578 9.32031H52.3961L52.9352 6.25H55.0445ZM76.968 15.7188C76.8117 17.0156 76.4562 18.1836 75.9016 19.2227C75.3469 20.2617 74.675 21.0312 73.8859 21.5312C73.0969 22.0312 72.2219 22.2695 71.2609 22.2461C69.7297 22.2148 68.593 21.6406 67.8508 20.5234L67.4172 22H65.4602L68.5891 4H70.7102L69.4328 10.7266C70.4484 9.60156 71.6828 9.05469 73.1359 9.08594C74.3547 9.11719 75.3039 9.56641 75.9836 10.4336C76.6633 11.3008 77.0227 12.4961 77.0617 14.0195C77.0695 14.5195 77.0461 15.0039 76.9914 15.4727L76.968 15.7188ZM74.9523 14.4883C74.9758 13.3477 74.7844 12.4766 74.3781 11.875C73.9719 11.2656 73.3508 10.9453 72.5148 10.9141C71.1945 10.8828 70.0773 11.5469 69.1633 12.9062L68.2141 18.4258C68.6828 19.7148 69.5617 20.375 70.8508 20.4062C71.6789 20.4375 72.4016 20.1914 73.0187 19.668C73.6437 19.1445 74.1164 18.4141 74.4367 17.4766C74.757 16.5312 74.9289 15.5352 74.9523 14.4883Z" fill="#505050"/>
<path d="M4.06055 39C4.0332 38.8867 4.01953 38.7754 4.01953 38.666L4.03711 38.332C3.45508 38.8711 2.83789 39.1328 2.18555 39.1172C1.62695 39.1094 1.17188 38.9336 0.820312 38.5898C0.472656 38.2422 0.314453 37.8086 0.345703 37.2891C0.384766 36.6172 0.677734 36.0938 1.22461 35.7188C1.77539 35.3398 2.49805 35.1504 3.39258 35.1504L4.5 35.1562L4.57031 34.6523C4.60938 34.2734 4.53516 33.9746 4.34766 33.7559C4.16406 33.5332 3.88672 33.418 3.51562 33.4102C3.15234 33.4023 2.83008 33.4922 2.54883 33.6797C2.27148 33.8633 2.10156 34.1074 2.03906 34.4121L0.972656 34.418C1.00781 34.0469 1.15234 33.7188 1.40625 33.4336C1.66016 33.1445 1.98633 32.9219 2.38477 32.7656C2.7832 32.6055 3.19531 32.5293 3.62109 32.5371C4.28125 32.5527 4.79492 32.7539 5.16211 33.1406C5.5293 33.5234 5.68359 34.0332 5.625 34.6699L5.10938 37.8105L5.08008 38.2617C5.07227 38.4766 5.0957 38.6895 5.15039 38.9004L5.13867 39H4.06055ZM2.39648 38.1797C2.73633 38.1875 3.05664 38.1074 3.35742 37.9395C3.66211 37.7676 3.92383 37.5312 4.14258 37.2305L4.37109 35.9238L3.56836 35.918C2.90039 35.918 2.38867 36.0234 2.0332 36.2344C1.67773 36.4453 1.47656 36.7441 1.42969 37.1309C1.39453 37.4277 1.46289 37.6758 1.63477 37.875C1.81055 38.0703 2.06445 38.1719 2.39648 38.1797ZM12.8695 37.5L14.891 32.6602H15.9867L13.098 39H12.2367L11.5805 34.207L9.29531 39H8.43398L7.74844 32.6602H8.76211L9.14883 37.3828L11.3988 32.6602H12.2543L12.8695 37.5ZM19.3348 39.1172C18.5457 39.1016 17.9285 38.8105 17.4832 38.2441C17.0379 37.6777 16.8504 36.9531 16.9207 36.0703L16.95 35.8184C17.0164 35.1895 17.202 34.6152 17.5066 34.0957C17.8152 33.5762 18.1902 33.1855 18.6316 32.9238C19.073 32.6582 19.5496 32.5312 20.0613 32.543C20.7137 32.5586 21.2254 32.7754 21.5965 33.1934C21.9676 33.6113 22.1707 34.1777 22.2059 34.8926C22.2176 35.1465 22.2098 35.4004 22.1824 35.6543L22.118 36.1406H17.9754C17.9051 36.7148 17.9988 37.2031 18.2566 37.6055C18.5184 38.0078 18.907 38.2168 19.4227 38.2324C20.0477 38.248 20.6258 37.9668 21.157 37.3887L21.7664 37.9043C21.5008 38.2871 21.157 38.5879 20.7352 38.8066C20.3172 39.0215 19.8504 39.125 19.3348 39.1172ZM20.0086 33.4277C19.5711 33.416 19.1883 33.5645 18.8602 33.873C18.5359 34.1816 18.2781 34.6406 18.0867 35.25L21.1688 35.2559L21.1922 35.1621C21.2547 34.6699 21.1746 34.2617 20.952 33.9375C20.7332 33.6094 20.4188 33.4395 20.0086 33.4277ZM27.341 37.2832C27.3996 36.8457 27.1594 36.5371 26.6203 36.3574L25.5187 36.0352C24.5891 35.7148 24.1398 35.1836 24.1711 34.4414C24.1984 33.8828 24.4523 33.4258 24.9328 33.0703C25.4172 32.7109 25.9855 32.5352 26.6379 32.543C27.2785 32.5508 27.798 32.7383 28.1965 33.1055C28.5988 33.4688 28.7922 33.9434 28.7766 34.5293L27.7219 34.5234C27.7297 34.207 27.6301 33.9492 27.423 33.75C27.216 33.5508 26.9406 33.4473 26.5969 33.4395C26.2297 33.4316 25.9133 33.5215 25.6477 33.709C25.4016 33.8848 25.259 34.1152 25.2199 34.4004C25.1691 34.7676 25.3937 35.0352 25.8937 35.2031L26.427 35.3496C27.1535 35.5371 27.6691 35.7812 27.9738 36.082C28.2785 36.3828 28.4191 36.7559 28.3957 37.2012C28.3723 37.5957 28.2434 37.9395 28.009 38.2324C27.7746 38.5254 27.4621 38.75 27.0715 38.9062C26.6809 39.0586 26.2648 39.1289 25.8234 39.1172C25.1516 39.1094 24.5969 38.9141 24.1594 38.5312C23.7219 38.1445 23.5109 37.6484 23.5266 37.043L24.5871 37.0488C24.5871 37.4043 24.7004 37.6895 24.927 37.9043C25.1535 38.1191 25.4641 38.2266 25.8586 38.2266C26.2453 38.2344 26.5793 38.1543 26.8605 37.9863C27.1418 37.8145 27.302 37.5801 27.341 37.2832ZM33.5953 32.543C34.1266 32.5508 34.5816 32.6953 34.9605 32.9766C35.3395 33.2578 35.6187 33.6465 35.7984 34.1426C35.982 34.6348 36.0445 35.1738 35.9859 35.7598L35.9742 35.8887C35.9 36.5059 35.7164 37.0645 35.4234 37.5645C35.1305 38.0605 34.7516 38.4473 34.2867 38.7246C33.8219 39.002 33.3121 39.1328 32.7574 39.1172C32.2301 39.1094 31.775 38.9648 31.3922 38.6836C31.0133 38.4023 30.7359 38.0195 30.5602 37.5352C30.3844 37.0508 30.3219 36.5176 30.3727 35.9355C30.4312 35.2793 30.609 34.6895 30.9059 34.166C31.2027 33.6426 31.5836 33.2383 32.0484 32.9531C32.5172 32.6641 33.0328 32.5273 33.5953 32.543ZM31.4391 35.9414C31.4117 36.1875 31.4117 36.4434 31.4391 36.709C31.4781 37.1699 31.6148 37.5371 31.8492 37.8105C32.0875 38.084 32.4039 38.2266 32.7984 38.2383C33.15 38.25 33.4742 38.1641 33.7711 37.9805C34.068 37.793 34.318 37.5117 34.5211 37.1367C34.7242 36.7617 34.8551 36.3457 34.9137 35.8887C34.9449 35.5293 34.9508 35.2266 34.9312 34.9805C34.8844 34.5078 34.7418 34.1348 34.5035 33.8613C34.2652 33.5879 33.9488 33.4434 33.5543 33.4277C33.0074 33.416 32.5426 33.6309 32.1598 34.0723C31.777 34.5137 31.5406 35.0918 31.4508 35.8066L31.4391 35.9414ZM39.4688 32.6543L39.334 33.3633C39.8652 32.8008 40.5078 32.5273 41.2617 32.543C41.6641 32.5508 42.0039 32.6426 42.2812 32.8184C42.5625 32.9941 42.7559 33.2422 42.8613 33.5625C43.4551 32.8672 44.1562 32.5273 44.9648 32.543C45.5977 32.5586 46.0645 32.7715 46.3652 33.1816C46.666 33.5918 46.7773 34.1426 46.6992 34.834L46.002 39H44.9473L45.6387 34.8223C45.6621 34.6191 45.6621 34.4336 45.6387 34.2656C45.5645 33.7344 45.2168 33.4629 44.5957 33.4512C44.209 33.4434 43.8574 33.5645 43.541 33.8145C43.2285 34.0605 43.0273 34.3848 42.9375 34.7871L42.2168 39H41.1504L41.8535 34.8281C41.9043 34.3945 41.8379 34.0605 41.6543 33.8262C41.4746 33.5918 41.1934 33.4707 40.8105 33.4629C40.1504 33.4473 39.625 33.748 39.2344 34.3652L38.4316 39H37.3711L38.4727 32.6602L39.4688 32.6543ZM50.9848 39.1172C50.1957 39.1016 49.5785 38.8105 49.1332 38.2441C48.6879 37.6777 48.5004 36.9531 48.5707 36.0703L48.6 35.8184C48.6664 35.1895 48.852 34.6152 49.1566 34.0957C49.4652 33.5762 49.8402 33.1855 50.2816 32.9238C50.723 32.6582 51.1996 32.5312 51.7113 32.543C52.3637 32.5586 52.8754 32.7754 53.2465 33.1934C53.6176 33.6113 53.8207 34.1777 53.8559 34.8926C53.8676 35.1465 53.8598 35.4004 53.8324 35.6543L53.768 36.1406H49.6254C49.5551 36.7148 49.6488 37.2031 49.9066 37.6055C50.1684 38.0078 50.557 38.2168 51.0727 38.2324C51.6977 38.248 52.2758 37.9668 52.807 37.3887L53.4164 37.9043C53.1508 38.2871 52.807 38.5879 52.3852 38.8066C51.9672 39.0215 51.5004 39.125 50.9848 39.1172ZM51.6586 33.4277C51.2211 33.416 50.8383 33.5645 50.5102 33.873C50.1859 34.1816 49.9281 34.6406 49.7367 35.25L52.8187 35.2559L52.8422 35.1621C52.9047 34.6699 52.8246 34.2617 52.602 33.9375C52.3832 33.6094 52.0687 33.4395 51.6586 33.4277ZM61.4074 31.125L61.1379 32.6602H62.2922L62.1457 33.498H60.9973L60.3352 37.4414C60.3234 37.543 60.3215 37.6367 60.3293 37.7227C60.3566 38.0273 60.5227 38.1797 60.8273 38.1797C60.9562 38.1797 61.1281 38.1602 61.343 38.1211L61.2609 39.0059C61.007 39.0762 60.7492 39.1113 60.4875 39.1113C60.0656 39.1035 59.7492 38.9492 59.5383 38.6484C59.3273 38.3438 59.2453 37.9355 59.2922 37.4238L59.9367 33.498H58.8176L58.9641 32.6602H60.0832L60.3527 31.125H61.4074ZM67.0172 33.627L66.5191 33.5742C65.8395 33.5742 65.3043 33.8809 64.9137 34.4941L64.1344 39H63.0738L64.1754 32.6602L65.2008 32.6543L65.0426 33.3926C65.4918 32.8027 66.0211 32.5156 66.6305 32.5312C66.7594 32.5312 66.9273 32.5605 67.1344 32.6191L67.0172 33.627ZM71.3145 39C71.2871 38.8867 71.2734 38.7754 71.2734 38.666L71.291 38.332C70.709 38.8711 70.0918 39.1328 69.4395 39.1172C68.8809 39.1094 68.4258 38.9336 68.0742 38.5898C67.7266 38.2422 67.5684 37.8086 67.5996 37.2891C67.6387 36.6172 67.9316 36.0938 68.4785 35.7188C69.0293 35.3398 69.752 35.1504 70.6465 35.1504L71.7539 35.1562L71.8242 34.6523C71.8633 34.2734 71.7891 33.9746 71.6016 33.7559C71.418 33.5332 71.1406 33.418 70.7695 33.4102C70.4062 33.4023 70.084 33.4922 69.8027 33.6797C69.5254 33.8633 69.3555 34.1074 69.293 34.4121L68.2266 34.418C68.2617 34.0469 68.4062 33.7188 68.6602 33.4336C68.9141 33.1445 69.2402 32.9219 69.6387 32.7656C70.0371 32.6055 70.4492 32.5293 70.875 32.5371C71.5352 32.5527 72.0488 32.7539 72.416 33.1406C72.7832 33.5234 72.9375 34.0332 72.8789 34.6699L72.3633 37.8105L72.334 38.2617C72.3262 38.4766 72.3496 38.6895 72.4043 38.9004L72.3926 39H71.3145ZM69.6504 38.1797C69.9902 38.1875 70.3105 38.1074 70.6113 37.9395C70.916 37.7676 71.1777 37.5312 71.3965 37.2305L71.625 35.9238L70.8223 35.918C70.1543 35.918 69.6426 36.0234 69.2871 36.2344C68.9316 36.4453 68.7305 36.7441 68.6836 37.1309C68.6484 37.4277 68.7168 37.6758 68.8887 37.875C69.0645 38.0703 69.3184 38.1719 69.6504 38.1797ZM76.643 37.5176L78.9281 32.6602H80.0473L76.8539 39H76.0453L74.8031 32.6602H75.8461L76.643 37.5176ZM83.2957 39.1172C82.5066 39.1016 81.8895 38.8105 81.4441 38.2441C80.9988 37.6777 80.8113 36.9531 80.8816 36.0703L80.9109 35.8184C80.9773 35.1895 81.1629 34.6152 81.4676 34.0957C81.7762 33.5762 82.1512 33.1855 82.5926 32.9238C83.034 32.6582 83.5105 32.5312 84.0223 32.543C84.6746 32.5586 85.1863 32.7754 85.5574 33.1934C85.9285 33.6113 86.1316 34.1777 86.1668 34.8926C86.1785 35.1465 86.1707 35.4004 86.1434 35.6543L86.0789 36.1406H81.9363C81.866 36.7148 81.9598 37.2031 82.2176 37.6055C82.4793 38.0078 82.868 38.2168 83.3836 38.2324C84.0086 38.248 84.5867 37.9668 85.118 37.3887L85.7273 37.9043C85.4617 38.2871 85.118 38.5879 84.6961 38.8066C84.2781 39.0215 83.8113 39.125 83.2957 39.1172ZM83.9695 33.4277C83.532 33.416 83.1492 33.5645 82.8211 33.873C82.4969 34.1816 82.2391 34.6406 82.0477 35.25L85.1297 35.2559L85.1531 35.1621C85.2156 34.6699 85.1355 34.2617 84.9129 33.9375C84.6941 33.6094 84.3797 33.4395 83.9695 33.4277ZM88.5246 39H87.4699L89.0285 30H90.0891L88.5246 39ZM100.154 35.8594C100.076 36.5078 99.8984 37.0918 99.6211 37.6113C99.3438 38.1309 99.0078 38.5156 98.6133 38.7656C98.2188 39.0156 97.7812 39.1348 97.3008 39.123C96.5352 39.1074 95.9668 38.8203 95.5957 38.2617L95.3789 39H94.4004L95.9648 30H97.0254L96.3867 33.3633C96.8945 32.8008 97.5117 32.5273 98.2383 32.543C98.8477 32.5586 99.3223 32.7832 99.6621 33.2168C100.002 33.6504 100.182 34.248 100.201 35.0098C100.205 35.2598 100.193 35.502 100.166 35.7363L100.154 35.8594ZM99.1465 35.2441C99.1582 34.6738 99.0625 34.2383 98.8594 33.9375C98.6562 33.6328 98.3457 33.4727 97.9277 33.457C97.2676 33.4414 96.709 33.7734 96.252 34.4531L95.7773 37.2129C96.0117 37.8574 96.4512 38.1875 97.0957 38.2031C97.5098 38.2188 97.8711 38.0957 98.1797 37.834C98.4922 37.5723 98.7285 37.207 98.8887 36.7383C99.0488 36.2656 99.1348 35.7676 99.1465 35.2441ZM102.746 39H101.692L103.25 30H104.311L102.746 39ZM108.602 32.543C109.134 32.5508 109.589 32.6953 109.968 32.9766C110.346 33.2578 110.626 33.6465 110.805 34.1426C110.989 34.6348 111.052 35.1738 110.993 35.7598L110.981 35.8887C110.907 36.5059 110.723 37.0645 110.43 37.5645C110.137 38.0605 109.759 38.4473 109.294 38.7246C108.829 39.002 108.319 39.1328 107.764 39.1172C107.237 39.1094 106.782 38.9648 106.399 38.6836C106.02 38.4023 105.743 38.0195 105.567 37.5352C105.391 37.0508 105.329 36.5176 105.38 35.9355C105.438 35.2793 105.616 34.6895 105.913 34.166C106.21 33.6426 106.591 33.2383 107.055 32.9531C107.524 32.6641 108.04 32.5273 108.602 32.543ZM106.446 35.9414C106.419 36.1875 106.419 36.4434 106.446 36.709C106.485 37.1699 106.622 37.5371 106.856 37.8105C107.095 38.084 107.411 38.2266 107.805 38.2383C108.157 38.25 108.481 38.1641 108.778 37.9805C109.075 37.793 109.325 37.5117 109.528 37.1367C109.731 36.7617 109.862 36.3457 109.921 35.8887C109.952 35.5293 109.958 35.2266 109.938 34.9805C109.891 34.5078 109.749 34.1348 109.511 33.8613C109.272 33.5879 108.956 33.4434 108.561 33.4277C108.014 33.416 107.55 33.6309 107.167 34.0723C106.784 34.5137 106.548 35.0918 106.458 35.8066L106.446 35.9414ZM112.695 35.8184C112.788 35.127 112.974 34.5273 113.251 34.0195C113.532 33.5078 113.872 33.1309 114.271 32.8887C114.673 32.6426 115.113 32.5254 115.589 32.5371C116.323 32.5527 116.878 32.8301 117.253 33.3691L117.464 32.6602H118.437L117.382 38.8652C117.269 39.6738 116.941 40.3203 116.398 40.8047C115.855 41.293 115.185 41.5254 114.388 41.502C113.958 41.4941 113.546 41.3926 113.152 41.1973C112.761 41.002 112.452 40.7344 112.226 40.3945L112.829 39.7441C113.212 40.3105 113.718 40.6016 114.347 40.6172C114.851 40.6328 115.277 40.4922 115.624 40.1953C115.976 39.8984 116.208 39.4766 116.321 38.9297L116.439 38.3672C115.923 38.8828 115.32 39.1328 114.628 39.1172C114.234 39.1055 113.89 39 113.597 38.8008C113.308 38.5977 113.083 38.3066 112.923 37.9277C112.763 37.5449 112.675 37.1191 112.659 36.6504C112.652 36.4199 112.663 36.1426 112.695 35.8184ZM113.72 36.4219C113.708 36.9805 113.804 37.4141 114.007 37.7227C114.214 38.0273 114.525 38.1875 114.939 38.2031C115.571 38.2188 116.116 37.9082 116.573 37.2715L117.071 34.3594C116.837 33.7812 116.413 33.4805 115.8 33.457C115.226 33.4414 114.753 33.6758 114.382 34.1602C114.015 34.6445 113.798 35.2988 113.732 36.123L113.72 36.4219Z" fill="#505050"/>
<path d="M93.5 6C89.358 6 86 9.358 86 13.5L86.0002 13.5133L86 13.5265C86 17.654 89.3392 21 93.4587 21L93.4748 20.9995L93.5 21C97.642 21 101 17.642 101 13.5C101 9.358 97.642 6 93.5 6ZM100.5 13.5C100.5 14.0985 100.424 14.6792 100.283 15.2335C100.218 15.1885 100.046 15.3745 100.003 15.128C99.95 14.822 99.605 14.6095 99.4192 14.7557C99.2335 14.902 98.7028 15.3273 98.6765 15.5933C98.6498 15.859 98.424 16.178 98.3182 15.9525C98.2118 15.7265 97.8938 15.0217 97.9067 14.8357C97.9197 14.6497 97.7603 14.9022 97.5223 14.53C97.2832 14.1578 96.872 14.4765 96.5402 14.2905C96.2085 14.1042 95.837 13.8518 95.651 13.7723C95.4657 13.6923 95.9827 14.5165 96.0492 14.4102C96.116 14.304 96.381 14.49 96.4607 14.49C96.5405 14.49 96.7525 14.676 96.62 14.849C96.4875 15.022 95.3068 15.7405 95.1873 15.5535C95.0673 15.3665 94.3647 13.9183 94.245 14.007C94.1255 14.0957 94.9882 15.6065 95.1342 15.6995C95.2797 15.7928 95.718 15.713 95.93 15.62C96.1425 15.527 95.4922 16.657 95.214 16.79C94.9355 16.9227 94.71 17.335 94.829 17.521C94.9485 17.707 94.9618 18.4117 94.71 18.505C94.4575 18.5977 94.3647 18.744 94.4443 18.917C94.5235 19.0895 94.2587 19.3818 94.1392 19.568C94.0195 19.754 93.5555 20.1395 93.5155 20.246C93.476 20.3525 92.9055 20.3258 92.6795 20.3258C92.4543 20.3258 92.6265 20.0465 92.5998 19.8075C92.5738 19.568 92.3748 19.342 92.3748 19.2225C92.3748 19.1027 92.308 18.8235 92.2155 18.6908C92.1227 18.5575 92.0957 18.305 92.1887 18.159C92.282 18.0125 92.348 17.5875 92.1627 17.4012C91.9767 17.2153 91.7643 16.896 91.9105 16.6435C92.0565 16.391 91.7512 16.4178 91.4992 16.2978C91.247 16.178 90.7295 16.3378 90.4643 16.3778C90.1988 16.4175 89.9338 16.3113 89.854 16.178C89.7745 16.0453 89.602 15.713 89.4253 15.633C89.249 15.5535 89.35 15.2077 89.456 15.075C89.5625 14.9423 89.35 14.6895 89.456 14.5828C89.5625 14.4765 89.6285 14.0913 89.8408 14.007C90.0533 13.923 90.0133 13.8652 90.0198 13.6657C90.0265 13.4662 90.2585 13.4662 90.298 13.36C90.338 13.2535 90.4573 13.2005 90.6968 13.2005C90.9355 13.2005 91.3397 13.0608 91.5322 13.0142C91.7248 12.9677 92.0565 12.9012 92.0297 13.0875C92.0032 13.2735 92.01 13.486 92.1357 13.486C92.262 13.486 92.4345 13.5593 92.6335 13.6833C92.8325 13.807 92.839 13.7057 92.8657 13.566C92.8925 13.4262 93.1707 13.4795 93.4587 13.6125C93.7467 13.7455 94.1395 13.6522 94.265 13.6392C94.3913 13.6255 94.4445 13.247 94.4113 13.1207C94.3778 12.9945 94.179 13.1805 94.053 13.1007C93.927 13.0212 93.7543 13.1207 93.6285 13.0075C93.5023 12.8948 93.4823 12.6287 93.6285 12.6223C93.7743 12.6155 93.8475 12.569 93.9335 12.4695C94.02 12.3698 94.345 12.31 94.471 12.4095C94.5967 12.5093 94.783 12.5757 94.8953 12.4627C95.008 12.35 94.6702 12.1308 94.5968 12.0708C94.5238 12.011 94.5835 11.8183 94.5107 11.8183C94.4375 11.8183 94.3778 11.8513 94.4178 11.9445C94.4575 12.0375 94.2055 12.2035 94.1652 12.1108C94.1257 12.0175 94.0595 11.8383 93.96 11.8383C93.8608 11.8383 93.728 12.2902 93.7212 12.3632C93.7145 12.4365 93.542 12.556 93.403 12.556C93.264 12.556 93.264 12.7158 93.3368 12.789C93.4097 12.862 93.3565 13.1545 93.224 13.1712C93.0912 13.1883 93.0448 13.1412 93.025 13.028C93.0052 12.9152 92.8725 12.9285 92.8657 12.6958C92.859 12.463 92.713 12.3503 92.6203 12.2438C92.5275 12.1372 92.2885 11.825 92.1958 11.9647C92.103 12.1045 92.5275 12.4035 92.64 12.483C92.7532 12.5627 92.7333 12.7355 92.6735 12.7755C92.6137 12.8155 92.501 13.1413 92.4348 13.1675C92.368 13.194 92.3047 13.0685 92.3047 13.0685C92.2052 13.0287 92.4437 12.909 92.4837 12.8492C92.5233 12.7895 92.066 12.3707 91.9835 12.251C91.901 12.1312 91.5485 12.3505 91.3895 12.271C91.2303 12.1915 90.9912 12.57 90.9717 12.7892C90.9515 13.0087 90.6927 13.0683 90.454 13.0683C90.2155 13.0683 90.056 12.889 90.136 12.7095C90.2155 12.53 90.096 12.231 90.2355 12.211C90.3747 12.1912 90.7723 12.211 90.852 11.9917C90.9315 11.7725 90.4738 11.573 90.6533 11.5332C90.832 11.4932 91.111 11.2145 91.31 11.0547C91.5085 10.8952 91.5285 10.696 91.7075 10.682C91.887 10.6683 91.668 10.3368 91.8273 10.2372C91.9868 10.1375 92.0262 10.5963 92.1458 10.5963C92.2653 10.5963 92.5035 10.5563 92.7028 10.656C92.902 10.7558 92.9615 10.5563 93.0413 10.2968C93.1208 10.0378 93.3197 9.898 93.7175 9.69875C94.1155 9.49925 93.2603 9.7585 93.1007 9.559C92.9415 9.3595 93.1605 8.92075 93.2603 8.611C93.3598 8.301 92.9418 8.92075 92.7228 9.24C92.5035 9.559 92.7825 9.6985 92.7622 9.91775C92.7425 10.1372 92.3847 10.3962 92.3847 10.3962C92.2255 10.4162 92.2453 10.0972 92.1658 9.95775C92.086 9.81825 91.9465 9.878 91.7275 10.0375C91.5085 10.197 91.4887 9.65875 91.4292 9.43925C91.37 9.22025 91.7875 8.94075 91.9837 8.79175C92.1797 8.64225 92.5035 7.924 92.862 7.366C93.2205 6.80775 93.7378 7.08675 93.877 7.30625C94.0168 7.52525 94.3743 7.38575 94.713 7.78475C95.0515 8.1835 94.6332 8.36275 94.2557 8.20075C93.877 8.03875 94.335 8.60225 94.5535 8.76175C94.7725 8.921 94.892 8.40275 94.9718 8.28325C95.0513 8.1635 95.3495 8.2235 95.5682 7.90425C95.7875 7.58525 96.2847 7.64525 96.5688 7.68025C96.853 7.7155 96.7822 7.5055 96.6032 7.33375C96.4707 7.20675 96.7417 7.318 97.0608 7.47375C99.119 8.692 100.5 10.9342 100.5 13.5ZM90.5105 11.118C90.4445 11.0497 90.5773 10.781 90.6368 10.7013C90.6968 10.6215 90.4707 10.648 90.4845 10.7613C90.4977 10.874 90.398 11.047 90.2587 11.0935C90.1195 11.14 89.9607 11.1265 90.04 11.0002C90.1192 10.874 90.0465 10.761 89.9868 10.6413C89.9273 10.5215 90.3183 10.4485 90.3983 10.3755C90.4778 10.3025 90.2725 10.2558 90.2787 10.143C90.2855 10.0298 90.332 9.93025 90.411 9.917C90.4907 9.90375 90.5653 9.85275 90.6368 9.85725C90.856 9.87075 90.789 10.369 90.869 10.5287C90.9485 10.688 91.1743 10.881 91.1543 11.0202C91.1343 11.16 91.0917 11.2397 90.9292 11.1997C90.766 11.1597 90.5047 11.4058 90.4047 11.3593C90.305 11.3125 90.5773 11.1863 90.5105 11.118ZM89.081 8.32275C89.2803 8.42225 89.439 8.24175 89.578 8.203C89.7428 8.1575 89.8368 8.7415 89.6778 8.7215C89.5185 8.7015 89.3395 9.0405 89.1095 9.0205C88.8793 9.0005 88.9813 8.84125 88.7225 8.602C88.667 8.5505 88.6443 8.504 88.6423 8.46325C88.6975 8.41 88.7525 8.3565 88.8098 8.30525C88.8993 8.2815 89.0055 8.285 89.081 8.32275ZM95.3065 18.358C95.4923 18.3182 95.4565 17.9648 95.625 17.946C95.9832 17.9062 95.6382 18.903 95.5057 19.1823C95.373 19.4615 95.3195 19.448 95.1932 19.2753C95.0665 19.1028 95.1075 18.8232 95.1932 18.6905C95.2787 18.5573 95.1205 18.398 95.3065 18.358Z" fill="#505050"/>
</svg>
